# xmcd CD database file
#
# Track frame offsets:
#	150
#	14024
#	27659
#	42003
#	57857
#	72851
#	86795
#	99052
#	115136
#	130389
#	142778
#	157506
#
# Disc length: 2282 seconds
#
# Revision: 0
# Processed by: cddbd v1.5.2PL0 Copyright (c) Steve Scherf et al.
# Submitted via: CDex 1.51
#
DISCID=9208e80c
DTITLE=Himalaya - Bergfeuer
DYEAR=2009
DGENRE=Volkstümlich
TTITLE0=Himalaya
TTITLE1=Irgenwann fangen träume zum leben an
TTITLE2=Manchmal sind Berge so steil wie schöne Frauen
TTITLE3=Fanes
TTITLE4=Johnny ist ein Cowboy
TTITLE5=Ruf der Berge
TTITLE6=Angelina
TTITLE7=Ist es Zufall
TTITLE8=Im Herzen ein Adler
TTITLE9=Alles Gute
TTITLE10=Aus der Traum
TTITLE11=Gemeinsam sind wir stark
EXTD=YEAR: 2009
EXTT0=
EXTT1=
EXTT2=
EXTT3=
EXTT4=
EXTT5=
EXTT6=
EXTT7=
EXTT8=
EXTT9=
EXTT10=
EXTT11=
PLAYORDER=
